<svg xmlns="http://www.w3.org/2000/svg" viewBox="0 0 96 96"><circle cx="48" cy="48" r="43" fill="#eee5d5"/><path d="M27 76q-13-7-12-20" fill="none" stroke="#b88660" stroke-width="7" stroke-linecap="round"/><ellipse cx="48" cy="68" rx="23" ry="18" fill="#f9f4e8"/><path d="m25 44 1-23 17 10h10l17-10 1 24q0 23-23 23T25 44" fill="#f9f4e8"/><path d="m27 23 16 9-2 14-16 2z" fill="#bd855d"/><path d="m53 31 17-10 1 24-18-4z" fill="#514c45"/><path d="M34 62q14-4 10 21H28z" fill="#bc855b"/><path d="M35 45h2m22 0h2" stroke="#3f3932" stroke-width="3" stroke-linecap="round"/><path d="m45 51 3 3 3-3m-3 3v4m0 0-5 2m5-2 5 2" stroke="#6c5547" fill="none" stroke-width="1.5" stroke-linecap="round"/><path d="M37 78v5m20-5v5" stroke="#786a5b" stroke-width="2" stroke-linecap="round"/><circle cx="77" cy="71" r="7" fill="#c6b58d"/><path d="M75 71h4" stroke="#8b7758"/><path d="M17 32h6m-3-3v6" stroke="#9880b6" stroke-width="1.7"/></svg>
